<svg width="571" height="229" viewBox="0 0 571 229" fill="none" xmlns="http://www.w3.org/2000/svg">
<path d="M234.077 220.9C231.545 222.342 228.667 223.1 225.75 223.1C219.841 223.1 214.315 219.952 211.341 214.887L121.201 60.5507L31.0413 214.887C28.0866 219.952 22.5607 223.1 16.632 223.1C13.7155 223.1 10.8375 222.342 8.30482 220.9C0.380619 216.366 -2.36311 206.275 2.22256 198.421L106.715 19.5765C106.715 19.5765 106.791 19.4248 106.849 19.3679C107.022 19.0644 107.194 18.7609 107.405 18.4763C107.597 18.1728 107.827 17.8693 108.058 17.5847C108.269 17.3002 108.499 17.0346 108.729 16.7691C109.19 16.2758 109.65 15.8016 110.168 15.3463C110.437 15.1187 110.705 14.8911 110.993 14.6824C111.281 14.4548 111.588 14.2461 111.895 14.0374C112.183 13.8288 112.49 13.6581 112.797 13.4873C112.816 13.4684 112.854 13.4494 112.874 13.4304C113.948 12.8234 115.042 12.3492 116.174 12.0077C116.769 11.818 117.383 11.6663 117.997 11.5335C120.126 11.1161 122.294 11.1161 124.386 11.5335C125 11.6663 125.614 11.818 126.209 12.0077C127.014 12.2543 127.82 12.5578 128.588 12.9372C128.895 13.089 129.202 13.2597 129.509 13.4304C129.835 13.6201 130.161 13.8288 130.487 14.0374C130.794 14.2271 131.101 14.4548 131.389 14.6824C131.677 14.8911 131.945 15.1187 132.214 15.3463C132.713 15.8016 133.193 16.2569 133.653 16.7691C133.883 17.0346 134.114 17.3002 134.325 17.5847C134.555 17.8693 134.766 18.1728 134.977 18.4763C135.188 18.7609 135.361 19.0644 135.533 19.3679C135.553 19.3868 135.572 19.4248 135.591 19.4438L135.668 19.5765L240.16 198.421C244.745 206.275 242.021 216.366 234.077 220.9ZM571 114.5C571 177.631 519.042 229 455.188 229C391.334 229 339.356 177.631 339.356 114.5C339.356 51.3695 391.314 0 455.188 0C519.061 0 571 51.3695 571 114.5ZM537.73 114.5C537.73 69.5043 500.699 32.8931 455.188 32.8931C409.676 32.8931 372.645 69.5043 372.645 114.5C372.645 159.496 409.676 196.107 455.188 196.107C500.699 196.107 537.73 159.496 537.73 114.5ZM284.904 51.673C270.782 51.673 259.308 63.0357 259.308 76.9973C259.308 90.9588 270.782 102.303 284.904 102.303C299.025 102.303 310.499 90.9399 310.499 76.9973C310.499 63.0547 299.025 51.673 284.904 51.673ZM284.904 126.697C270.782 126.697 259.308 138.06 259.308 152.003C259.308 165.945 270.782 177.327 284.904 177.327C299.025 177.327 310.499 165.964 310.499 152.003C310.499 138.041 299.025 126.697 284.904 126.697Z" fill="black"/>
</svg>
